<svg width="200" height="200" viewBox="0 0 200 200" fill="none" xmlns="http://www.w3.org/2000/svg">
<path d="M13.404 137.648L70.088 69.864H17.844V50.328H101.02V68.68L44.336 136.464H102.5V156H13.404V137.648ZM178.045 122.7C178.045 126.153 177.699 129.952 177.009 134.096C176.318 138.24 174.739 142.137 172.273 145.788C169.806 149.34 166.254 152.349 161.617 154.816C156.979 157.184 150.714 158.368 142.821 158.368C138.381 158.368 134.089 157.727 129.945 156.444C125.801 155.26 122.101 153.385 118.845 150.82C115.589 148.156 112.974 144.801 111.001 140.756C109.027 136.612 108.041 131.629 108.041 125.808V116.632H129.057V121.368C129.057 123.933 129.254 126.301 129.649 128.472C130.043 130.643 130.734 132.517 131.721 134.096C132.707 135.576 134.039 136.76 135.717 137.648C137.493 138.536 139.762 138.98 142.525 138.98C145.583 138.98 147.951 138.437 149.629 137.352C151.306 136.267 152.49 134.885 153.181 133.208C153.97 131.432 154.414 129.557 154.513 127.584C154.71 125.512 154.809 123.539 154.809 121.664V50.328H178.045V122.7Z" fill="#E6E4DC"/>
</svg>
